<?xml version="1.0" encoding="utf-8" standalone="no"?>
<!DOCTYPE svg PUBLIC "-//W3C//DTD SVG 1.1//EN"
  "http://www.w3.org/Graphics/SVG/1.1/DTD/svg11.dtd">
<svg xmlns:xlink="http://www.w3.org/1999/xlink" width="460.8pt" height="345.6pt" viewBox="0 0 460.8 345.6" xmlns="http://www.w3.org/2000/svg" version="1.1">
 <metadata>
  <rdf:RDF xmlns:dc="http://purl.org/dc/elements/1.1/" xmlns:cc="http://creativecommons.org/ns#" xmlns:rdf="http://www.w3.org/1999/02/22-rdf-syntax-ns#">
   <cc:Work>
    <dc:type rdf:resource="http://purl.org/dc/dcmitype/StillImage"/>
    <dc:date>2024-12-10T17:35:00.171127</dc:date>
    <dc:format>image/svg+xml</dc:format>
    <dc:creator>
     <cc:Agent>
      <dc:title>Matplotlib v3.9.3, https://matplotlib.org/</dc:title>
     </cc:Agent>
    </dc:creator>
   </cc:Work>
  </rdf:RDF>
 </metadata>
 <defs>
  <style type="text/css">*{stroke-linejoin: round; stroke-linecap: butt}</style>
 </defs>
 <g id="figure_1">
  <g id="patch_1">
   <path d="M 0 345.6 
L 460.8 345.6 
L 460.8 0 
L 0 0 
z
" style="fill: #ffffff"/>
  </g>
  <g id="axes_1">
   <g id="PatchCollection_1">
    <path d="M 103.104 407.376 
C 129.569148 407.376 154.953914 396.861285 173.6676 378.1476 
C 192.381285 359.433914 202.896 334.049148 202.896 307.584 
C 202.896 281.118852 192.381285 255.734086 173.6676 237.0204 
C 154.953914 218.306715 129.569148 207.792 103.104 207.792 
C 76.638852 207.792 51.254086 218.306715 32.5404 237.0204 
C 13.826715 255.734086 3.312 281.118852 3.312 307.584 
C 3.312 334.049148 13.826715 359.433914 32.5404 378.1476 
C 51.254086 396.861285 76.638852 407.376 103.104 407.376 
z
" clip-path="url(#p558595b90d)" style="fill: #ffffff; stroke: #000000; stroke-width: 2"/>
    <path d="M 1433.664 407.376 
C 1460.129148 407.376 1485.513914 396.861285 1504.2276 378.1476 
C 1522.941285 359.433914 1533.456 334.049148 1533.456 307.584 
C 1533.456 281.118852 1522.941285 255.734086 1504.2276 237.0204 
C 1485.513914 218.306715 1460.129148 207.792 1433.664 207.792 
C 1407.198852 207.792 1381.814086 218.306715 1363.1004 237.0204 
C 1344.386715 255.734086 1333.872 281.118852 1333.872 307.584 
C 1333.872 334.049148 1344.386715 359.433914 1363.1004 378.1476 
C 1381.814086 396.861285 1407.198852 407.376 1433.664 407.376 
z
" clip-path="url(#p558595b90d)" style="fill: #ffffff; stroke: #000000; stroke-width: 2"/>
    <path d="M 1167.552 -657.072 
C 1194.017148 -657.072 1219.401914 -667.586715 1238.1156 -686.3004 
C 1256.829285 -705.014086 1267.344 -730.398852 1267.344 -756.864 
C 1267.344 -783.329148 1256.829285 -808.713914 1238.1156 -827.4276 
C 1219.401914 -846.141285 1194.017148 -856.656 1167.552 -856.656 
C 1141.086852 -856.656 1115.702086 -846.141285 1096.9884 -827.4276 
C 1078.274715 -808.713914 1067.76 -783.329148 1067.76 -756.864 
C 1067.76 -730.398852 1078.274715 -705.014086 1096.9884 -686.3004 
C 1115.702086 -667.586715 1141.086852 -657.072 1167.552 -657.072 
z
" clip-path="url(#p558595b90d)" style="fill: #ffffff; stroke: #000000; stroke-width: 2"/>
    <path d="M 584.926387 207.792 
C 611.391535 207.792 636.776302 197.277285 655.489987 178.5636 
C 674.203673 159.849914 684.718387 134.465148 684.718387 108 
C 684.718387 81.534852 674.203673 56.150086 655.489987 37.4364 
C 636.776302 18.722715 611.391535 8.208 584.926387 8.208 
C 558.461239 8.208 533.076473 18.722715 514.362787 37.4364 
C 495.649102 56.150086 485.134387 81.534852 485.134387 108 
C 485.134387 134.465148 495.649102 159.849914 514.362787 178.5636 
C 533.076473 197.277285 558.461239 207.792 584.926387 207.792 
z
" clip-path="url(#p558595b90d)" style="fill: #ffffff; stroke: #000000; stroke-width: 2"/>
   </g>
   <g id="PatchCollection_2">
    <path d="M 1433.664 208.78992 
L 103.104 208.78992 
L 103.104 406.37808 
L 1433.664 406.37808 
z
" clip-path="url(#p558595b90d)" style="fill: #d0d0d0; stroke: #d0d0d0; stroke-width: 2"/>
   </g>
   <g id="PatchCollection_3">
    <path d="M 1433.664 208.78992 
L 103.104 208.78992 
L 103.104 406.37808 
L 1433.664 406.37808 
z
" clip-path="url(#p558595b90d)" style="fill: #d0d0d0; stroke: #d0d0d0; stroke-width: 2"/>
   </g>
   <g id="PatchCollection_4">
    <path d="M 1433.664 208.78992 
L 103.104 208.78992 
L 103.104 406.37808 
L 1433.664 406.37808 
z
" clip-path="url(#p558595b90d)" style="fill: #d0d0d0; stroke: #d0d0d0; stroke-width: 2"/>
   </g>
   <g id="PatchCollection_5">
    <path d="M 1433.664 208.78992 
L 103.104 208.78992 
L 103.104 406.37808 
L 1433.664 406.37808 
z
" clip-path="url(#p558595b90d)" style="fill: #d0d0d0; stroke: #d0d0d0; stroke-width: 2"/>
   </g>
   <g id="PatchCollection_6">
    <path d="M -35.207712 445.895712 
L 241.415712 445.895712 
L 241.415712 307.584 
L -35.207712 307.584 
z
" clip-path="url(#p558595b90d)" style="fill: #d0d0d0"/>
    <path d="M 103.104 445.895712 
C 139.784695 445.895712 174.967981 431.322317 200.905149 405.385149 
C 226.842317 379.447981 241.415712 344.264695 241.415712 307.584 
C 241.415712 270.903305 226.842317 235.720019 200.905149 209.782851 
C 174.967981 183.845683 139.784695 169.272288 103.104 169.272288 
C 66.423305 169.272288 31.240019 183.845683 5.302851 209.782851 
C -20.634317 235.720019 -35.207712 270.903305 -35.207712 307.584 
C -35.207712 344.264695 -20.634317 379.447981 5.302851 405.385149 
C 31.240019 431.322317 66.423305 445.895712 103.104 445.895712 
z
" clip-path="url(#p558595b90d)" style="fill: #d0d0d0"/>
    <path d="M -35.207712 544.689792 
L 241.415712 544.689792 
L 241.415712 524.930976 
L -35.207712 524.930976 
z
" clip-path="url(#p558595b90d)" style="fill: #d0d0d0"/>
    <path d="M 43.827552 524.930976 
C 54.307751 524.930976 64.360118 520.767149 71.770738 513.35653 
C 79.181357 505.94591 83.345184 495.893543 83.345184 485.413344 
C 83.345184 474.933145 79.181357 464.880778 71.770738 457.470158 
C 64.360118 450.059539 54.307751 445.895712 43.827552 445.895712 
C 33.347353 445.895712 23.294986 450.059539 15.884366 457.470158 
C 8.473747 464.880778 4.30992 474.933145 4.30992 485.413344 
C 4.30992 495.893543 8.473747 505.94591 15.884366 513.35653 
C 23.294986 520.767149 33.347353 524.930976 43.827552 524.930976 
z
" clip-path="url(#p558595b90d)" style="fill: #d0d0d0"/>
    <path d="M 162.380448 524.930976 
C 172.860647 524.930976 182.913014 520.767149 190.323634 513.35653 
C 197.734253 505.94591 201.89808 495.893543 201.89808 485.413344 
C 201.89808 474.933145 197.734253 464.880778 190.323634 457.470158 
C 182.913014 450.059539 172.860647 445.895712 162.380448 445.895712 
C 151.900249 445.895712 141.847882 450.059539 134.437262 457.470158 
C 127.026643 464.880778 122.862816 474.933145 122.862816 485.413344 
C 122.862816 495.893543 127.026643 505.94591 134.437262 513.35653 
C 141.847882 520.767149 151.900249 524.930976 162.380448 524.930976 
z
" clip-path="url(#p558595b90d)" style="fill: #d0d0d0"/>
    <path d="M -54.966528 603.96624 
L 3.714162 545.28555 
L -4.668794 536.902595 
L -63.349484 595.583284 
z
" clip-path="url(#p558595b90d)" style="fill: #d0d0d0"/>
    <path d="M 4.30992 603.96624 
L 62.99061 545.28555 
L 54.607654 536.902595 
L -4.073036 595.583284 
z
" clip-path="url(#p558595b90d)" style="fill: #d0d0d0"/>
    <path d="M 63.586368 603.96624 
L 122.267058 545.28555 
L 113.884102 536.902595 
L 55.203412 595.583284 
z
" clip-path="url(#p558595b90d)" style="fill: #d0d0d0"/>
    <path d="M 122.862816 603.96624 
L 181.543506 545.28555 
L 173.16055 536.902595 
L 114.47986 595.583284 
z
" clip-path="url(#p558595b90d)" style="fill: #d0d0d0"/>
    <path d="M 182.139264 603.96624 
L 240.819954 545.28555 
L 232.436998 536.902595 
L 173.756308 595.583284 
z
" clip-path="url(#p558595b90d)" style="fill: #d0d0d0"/>
   </g>
   <g id="PatchCollection_7">
    <path d="M -35.207712 426.136896 
L 241.415712 426.136896 
L 241.415712 307.584 
L -35.207712 307.584 
z
" clip-path="url(#p558595b90d)" style="fill: #d0d0d0"/>
    <path d="M 103.104 445.895712 
C 139.784695 445.895712 174.967981 431.322317 200.905149 405.385149 
C 226.842317 379.447981 241.415712 344.264695 241.415712 307.584 
C 241.415712 270.903305 226.842317 235.720019 200.905149 209.782851 
C 174.967981 183.845683 139.784695 169.272288 103.104 169.272288 
C 66.423305 169.272288 31.240019 183.845683 5.302851 209.782851 
C -20.634317 235.720019 -35.207712 270.903305 -35.207712 307.584 
C -35.207712 344.264695 -20.634317 379.447981 5.302851 405.385149 
C 31.240019 431.322317 66.423305 445.895712 103.104 445.895712 
z
" clip-path="url(#p558595b90d)" style="fill: #d0d0d0"/>
    <path d="M -74.725344 445.895712 
L 280.933344 445.895712 
L 280.933344 426.136896 
L -74.725344 426.136896 
z
" clip-path="url(#p558595b90d)" style="fill: #d0d0d0"/>
    <path d="M -54.966528 505.17216 
L 3.714162 446.49147 
L -4.668794 438.108515 
L -63.349484 496.789204 
z
" clip-path="url(#p558595b90d)" style="fill: #d0d0d0"/>
    <path d="M 4.30992 505.17216 
L 62.99061 446.49147 
L 54.607654 438.108515 
L -4.073036 496.789204 
z
" clip-path="url(#p558595b90d)" style="fill: #d0d0d0"/>
    <path d="M 63.586368 505.17216 
L 122.267058 446.49147 
L 113.884102 438.108515 
L 55.203412 496.789204 
z
" clip-path="url(#p558595b90d)" style="fill: #d0d0d0"/>
    <path d="M 122.862816 505.17216 
L 181.543506 446.49147 
L 173.16055 438.108515 
L 114.47986 496.789204 
z
" clip-path="url(#p558595b90d)" style="fill: #d0d0d0"/>
    <path d="M 182.139264 505.17216 
L 240.819954 446.49147 
L 232.436998 438.108515 
L 173.756308 496.789204 
z
" clip-path="url(#p558595b90d)" style="fill: #d0d0d0"/>
   </g>
   <g id="PatchCollection_8"/>
  </g>
 </g>
 <defs>
  <clipPath id="p558595b90d">
   <rect x="103.104" y="41.472" width="266.112" height="266.112"/>
  </clipPath>
 </defs>
</svg>
