<?xml version="1.0" encoding="utf-8" standalone="no"?>
<!DOCTYPE svg PUBLIC "-//W3C//DTD SVG 1.1//EN"
  "http://www.w3.org/Graphics/SVG/1.1/DTD/svg11.dtd">
<svg xmlns:xlink="http://www.w3.org/1999/xlink" width="460.8pt" height="345.6pt" viewBox="0 0 460.8 345.6" xmlns="http://www.w3.org/2000/svg" version="1.1">
 <metadata>
  <rdf:RDF xmlns:dc="http://purl.org/dc/elements/1.1/" xmlns:cc="http://creativecommons.org/ns#" xmlns:rdf="http://www.w3.org/1999/02/22-rdf-syntax-ns#">
   <cc:Work>
    <dc:type rdf:resource="http://purl.org/dc/dcmitype/StillImage"/>
    <dc:date>2024-12-16T12:45:09.026476</dc:date>
    <dc:format>image/svg+xml</dc:format>
    <dc:creator>
     <cc:Agent>
      <dc:title>Matplotlib v3.9.2, https://matplotlib.org/</dc:title>
     </cc:Agent>
    </dc:creator>
   </cc:Work>
  </rdf:RDF>
 </metadata>
 <defs>
  <style type="text/css">*{stroke-linejoin: round; stroke-linecap: butt}</style>
 </defs>
 <g id="figure_1">
  <g id="patch_1">
   <path d="M 0 345.6 
L 460.8 345.6 
L 460.8 0 
L 0 0 
z
" style="fill: #ffffff"/>
  </g>
  <g id="axes_1">
   <g id="PatchCollection_1">
    <defs>
     <path id="m0d0eab034f" d="M 314.428235 -120.080245 
L 157.891765 -120.080245 
L 157.891765 -96.834579 
L 314.428235 -96.834579 
z
" style="stroke: #d0d0d0; stroke-width: 2"/>
    </defs>
    <g clip-path="url(#pef66446a64)">
     <use xlink:href="#m0d0eab034f" x="0" y="345.6" style="fill: #d0d0d0; stroke: #d0d0d0; stroke-width: 2"/>
    </g>
   </g>
   <g id="PatchCollection_2">
    <defs>
     <path id="m2cdda17a4d" d="M 211.916168 -120.623664 
L 311.767652 -97.143193 
L 317.088818 -119.77163 
L 217.237335 -143.252101 
z
" style="stroke: #d0d0d0; stroke-width: 2"/>
    </defs>
    <g clip-path="url(#pef66446a64)">
     <use xlink:href="#m2cdda17a4d" x="0" y="345.6" style="fill: #d0d0d0; stroke: #d0d0d0; stroke-width: 2"/>
    </g>
   </g>
   <g id="PatchCollection_3">
    <defs>
     <path id="m9bdcc5f840" d="M 273.481393 -240.180381 
L 204.937203 -138.431675 
L 224.2163 -125.444089 
L 292.76049 -227.192795 
z
" style="stroke: #d0d0d0; stroke-width: 2"/>
    </defs>
    <g clip-path="url(#pef66446a64)">
     <use xlink:href="#m9bdcc5f840" x="0" y="345.6" style="fill: #d0d0d0; stroke: #d0d0d0; stroke-width: 2"/>
    </g>
   </g>
   <g id="PatchCollection_4">
    <defs>
     <path id="m67d42778dd" d="M 166.110349 -100.238828 
L 291.339525 -225.468004 
L 274.902357 -241.905172 
L 149.673181 -116.675996 
z
" style="stroke: #d0d0d0; stroke-width: 2"/>
    </defs>
    <g clip-path="url(#pef66446a64)">
     <use xlink:href="#m67d42778dd" x="0" y="345.6" style="fill: #d0d0d0; stroke: #d0d0d0; stroke-width: 2"/>
    </g>
   </g>
   <g id="PatchCollection_5">
    <path d="M 298.156269 253.414554 
L 330.700201 253.414554 
L 330.700201 237.142588 
L 298.156269 237.142588 
z
" clip-path="url(#pef66446a64)" style="fill: #d0d0d0"/>
    <path d="M 314.428235 253.414554 
C 318.743611 253.414554 322.882821 251.700037 325.934253 248.648606 
C 328.985684 245.597174 330.700201 241.457964 330.700201 237.142588 
C 330.700201 232.827212 328.985684 228.688002 325.934253 225.636571 
C 322.882821 222.585139 318.743611 220.870622 314.428235 220.870622 
C 310.112859 220.870622 305.973649 222.585139 302.922218 225.636571 
C 299.870786 228.688002 298.156269 232.827212 298.156269 237.142588 
C 298.156269 241.457964 299.870786 245.597174 302.922218 248.648606 
C 305.973649 251.700037 310.112859 253.414554 314.428235 253.414554 
z
" clip-path="url(#pef66446a64)" style="fill: #d0d0d0"/>
    <path d="M 298.156269 265.037387 
L 330.700201 265.037387 
L 330.700201 262.712821 
L 298.156269 262.712821 
z
" clip-path="url(#pef66446a64)" style="fill: #d0d0d0"/>
    <path d="M 307.454536 262.712821 
C 308.6875 262.712821 309.870132 262.222959 310.741969 261.351121 
C 311.613807 260.479284 312.103669 259.296652 312.103669 258.063688 
C 312.103669 256.830723 311.613807 255.648092 310.741969 254.776254 
C 309.870132 253.904416 308.6875 253.414554 307.454536 253.414554 
C 306.221571 253.414554 305.03894 253.904416 304.167102 254.776254 
C 303.295264 255.648092 302.805402 256.830723 302.805402 258.063688 
C 302.805402 259.296652 303.295264 260.479284 304.167102 261.351121 
C 305.03894 262.222959 306.221571 262.712821 307.454536 262.712821 
z
" clip-path="url(#pef66446a64)" style="fill: #d0d0d0"/>
    <path d="M 321.401935 262.712821 
C 322.6349 262.712821 323.817531 262.222959 324.689369 261.351121 
C 325.561206 260.479284 326.051068 259.296652 326.051068 258.063688 
C 326.051068 256.830723 325.561206 255.648092 324.689369 254.776254 
C 323.817531 253.904416 322.6349 253.414554 321.401935 253.414554 
C 320.168971 253.414554 318.986339 253.904416 318.114501 254.776254 
C 317.242664 255.648092 316.752802 256.830723 316.752802 258.063688 
C 316.752802 259.296652 317.242664 260.479284 318.114501 261.351121 
C 318.986339 262.222959 320.168971 262.712821 321.401935 262.712821 
z
" clip-path="url(#pef66446a64)" style="fill: #d0d0d0"/>
    <path d="M 295.831703 272.011087 
L 302.735313 265.107477 
L 301.749083 264.121246 
L 294.845473 271.024857 
z
" clip-path="url(#pef66446a64)" style="fill: #d0d0d0"/>
    <path d="M 302.805402 272.011087 
L 309.709013 265.107477 
L 308.722783 264.121246 
L 301.819172 271.024857 
z
" clip-path="url(#pef66446a64)" style="fill: #d0d0d0"/>
    <path d="M 309.779102 272.011087 
L 316.682713 265.107477 
L 315.696483 264.121246 
L 308.792872 271.024857 
z
" clip-path="url(#pef66446a64)" style="fill: #d0d0d0"/>
    <path d="M 316.752802 272.011087 
L 323.656412 265.107477 
L 322.670182 264.121246 
L 315.766572 271.024857 
z
" clip-path="url(#pef66446a64)" style="fill: #d0d0d0"/>
    <path d="M 323.726502 272.011087 
L 330.630112 265.107477 
L 329.643882 264.121246 
L 322.740272 271.024857 
z
" clip-path="url(#pef66446a64)" style="fill: #d0d0d0"/>
   </g>
   <g id="PatchCollection_6">
    <path d="M 141.619799 251.089988 
L 174.163731 251.089988 
L 174.163731 237.142588 
L 141.619799 237.142588 
z
" clip-path="url(#pef66446a64)" style="fill: #d0d0d0"/>
    <path d="M 157.891765 253.414554 
C 162.207141 253.414554 166.346351 251.700037 169.397782 248.648606 
C 172.449214 245.597174 174.163731 241.457964 174.163731 237.142588 
C 174.163731 232.827212 172.449214 228.688002 169.397782 225.636571 
C 166.346351 222.585139 162.207141 220.870622 157.891765 220.870622 
C 153.576389 220.870622 149.437179 222.585139 146.385747 225.636571 
C 143.334316 228.688002 141.619799 232.827212 141.619799 237.142588 
C 141.619799 241.457964 143.334316 245.597174 146.385747 248.648606 
C 149.437179 251.700037 153.576389 253.414554 157.891765 253.414554 
z
" clip-path="url(#pef66446a64)" style="fill: #d0d0d0"/>
    <path d="M 136.970665 253.414554 
L 178.812864 253.414554 
L 178.812864 251.089988 
L 136.970665 251.089988 
z
" clip-path="url(#pef66446a64)" style="fill: #d0d0d0"/>
    <path d="M 139.295232 260.388254 
L 146.198843 253.484644 
L 145.212612 252.498413 
L 138.309002 259.402024 
z
" clip-path="url(#pef66446a64)" style="fill: #d0d0d0"/>
    <path d="M 146.268932 260.388254 
L 153.172542 253.484644 
L 152.186312 252.498413 
L 145.282702 259.402024 
z
" clip-path="url(#pef66446a64)" style="fill: #d0d0d0"/>
    <path d="M 153.242632 260.388254 
L 160.146242 253.484644 
L 159.160012 252.498413 
L 152.256401 259.402024 
z
" clip-path="url(#pef66446a64)" style="fill: #d0d0d0"/>
    <path d="M 160.216331 260.388254 
L 167.119942 253.484644 
L 166.133712 252.498413 
L 159.230101 259.402024 
z
" clip-path="url(#pef66446a64)" style="fill: #d0d0d0"/>
    <path d="M 167.190031 260.388254 
L 174.093642 253.484644 
L 173.107412 252.498413 
L 166.203801 259.402024 
z
" clip-path="url(#pef66446a64)" style="fill: #d0d0d0"/>
   </g>
   <g id="PatchCollection_7">
    <path d="M 263.39634 108.625978 
L 286.408375 131.638013 
L 288.052092 129.994297 
L 265.040056 106.982261 
z
" clip-path="url(#pef66446a64)" style="fill: #389ac7"/>
    <path d="M 256.821472 111.913412 
L 266.584652 111.913412 
L 266.584652 110.518672 
L 256.821472 110.518672 
z
" clip-path="url(#pef66446a64)" style="fill: #389ac7"/>
    <path d="M 261.752623 116.844562 
L 271.515802 116.844562 
L 271.515802 115.449822 
L 261.752623 115.449822 
z
" clip-path="url(#pef66446a64)" style="fill: #389ac7"/>
    <path d="M 266.683773 121.775713 
L 276.446953 121.775713 
L 276.446953 120.380973 
L 266.683773 120.380973 
z
" clip-path="url(#pef66446a64)" style="fill: #389ac7"/>
    <path d="M 271.614924 126.706863 
L 281.378103 126.706863 
L 281.378103 125.312123 
L 271.614924 125.312123 
z
" clip-path="url(#pef66446a64)" style="fill: #389ac7"/>
    <path d="M 276.546074 131.638013 
L 286.309254 131.638013 
L 286.309254 130.243273 
L 276.546074 130.243273 
z
" clip-path="url(#pef66446a64)" style="fill: #389ac7"/>
   </g>
   <g id="PatchCollection_8">
    <path d="M 157.891765 248.882824 
C 161.005312 248.882824 163.991755 247.645798 166.193365 245.444188 
C 168.394975 243.242578 169.632 240.256135 169.632 237.142588 
C 169.632 234.029041 168.394975 231.042598 166.193365 228.840988 
C 163.991755 226.639378 161.005312 225.402353 157.891765 225.402353 
C 154.778218 225.402353 151.791775 226.639378 149.590165 228.840988 
C 147.388555 231.042598 146.151529 234.029041 146.151529 237.142588 
C 146.151529 240.256135 147.388555 243.242578 149.590165 245.444188 
C 151.791775 247.645798 154.778218 248.882824 157.891765 248.882824 
z
" clip-path="url(#pef66446a64)" style="fill: #ffffff; stroke: #000000; stroke-width: 2"/>
    <path d="M 314.428235 248.882824 
C 317.541782 248.882824 320.528225 247.645798 322.729835 245.444188 
C 324.931445 243.242578 326.168471 240.256135 326.168471 237.142588 
C 326.168471 234.029041 324.931445 231.042598 322.729835 228.840988 
C 320.528225 226.639378 317.541782 225.402353 314.428235 225.402353 
C 311.314688 225.402353 308.328245 226.639378 306.126635 228.840988 
C 303.925025 231.042598 302.688 234.029041 302.688 237.142588 
C 302.688 240.256135 303.925025 243.242578 306.126635 245.444188 
C 308.328245 247.645798 311.314688 248.882824 314.428235 248.882824 
z
" clip-path="url(#pef66446a64)" style="fill: #ffffff; stroke: #000000; stroke-width: 2"/>
    <path d="M 283.120941 123.653647 
C 286.234488 123.653647 289.220931 122.416622 291.422541 120.215012 
C 293.624151 118.013402 294.861176 115.026959 294.861176 111.913412 
C 294.861176 108.799865 293.624151 105.813422 291.422541 103.611812 
C 289.220931 101.410202 286.234488 100.173176 283.120941 100.173176 
C 280.007394 100.173176 277.020951 101.410202 274.819341 103.611812 
C 272.617731 105.813422 271.380706 108.799865 271.380706 111.913412 
C 271.380706 115.026959 272.617731 118.013402 274.819341 120.215012 
C 277.020951 122.416622 280.007394 123.653647 283.120941 123.653647 
z
" clip-path="url(#pef66446a64)" style="fill: #ffffff; stroke: #000000; stroke-width: 2"/>
    <path d="M 214.576751 225.402353 
C 217.690298 225.402353 220.676741 224.165328 222.878351 221.963718 
C 225.079961 219.762108 226.316987 216.775664 226.316987 213.662118 
C 226.316987 210.548571 225.079961 207.562128 222.878351 205.360518 
C 220.676741 203.158908 217.690298 201.921882 214.576751 201.921882 
C 211.463205 201.921882 208.476761 203.158908 206.275151 205.360518 
C 204.073541 207.562128 202.836516 210.548571 202.836516 213.662118 
C 202.836516 216.775664 204.073541 219.762108 206.275151 221.963718 
C 208.476761 224.165328 211.463205 225.402353 214.576751 225.402353 
z
" clip-path="url(#pef66446a64)" style="fill: #ffffff; stroke: #000000; stroke-width: 2"/>
   </g>
  </g>
 </g>
 <defs>
  <clipPath id="pef66446a64">
   <rect x="87.450353" y="41.472" width="297.419294" height="266.112"/>
  </clipPath>
 </defs>
</svg>
